<?xml version="1.0" encoding="UTF-8"?>
<svg width="42px" height="42px" viewBox="0 0 42 42" version="1.1" xmlns="http://www.w3.org/2000/svg" xmlns:xlink="http://www.w3.org/1999/xlink">
    <title>batteryPower</title>
    <g id="batteryPower" stroke="none" stroke-width="1" fill="none" fill-rule="evenodd">
        <g id="Battery-Icon" transform="translate(3.600000, 12.000000)" fill="#65C466" fill-rule="nonzero">
            <path d="M6.28632911,18.6 C4.27329114,18.6 2.57810127,18.4116456 1.37734177,17.2108861 C0.176582278,16.0218987 0,14.338481 0,12.325443 L0,6.25101266 C0,4.27329114 0.176582278,2.60164557 1.37734177,1.40088608 C2.57810127,0.200126582 4.27329114,0 6.25101266,0 L27.1348101,0 C29.1478481,0 30.8312658,0.200126582 32.0437975,1.40088608 C33.244557,2.58987342 33.4093671,4.27329114 33.4093671,6.28632911 L33.4093671,12.325443 C33.4093671,14.338481 33.244557,16.0101266 32.0437975,17.2108861 C30.843038,18.4116456 29.1478481,18.6 27.1348101,18.6 L6.28632911,18.6 Z M5.95670886,16.7046835 L27.4644304,16.7046835 C28.6651899,16.7046835 29.9483544,16.5516456 30.6546835,15.8335443 C31.3610127,15.115443 31.5140506,13.8675949 31.5140506,12.6550633 L31.5140506,5.95670886 C31.5140506,4.74417722 31.3727848,3.49632911 30.6546835,2.77822785 C29.9483544,2.07189873 28.6651899,1.89531646 27.4644304,1.89531646 L5.99202532,1.89531646 C4.75594937,1.89531646 3.47278481,2.06012658 2.75468354,2.77822785 C2.04835443,3.48455696 1.89531646,4.75594937 1.89531646,5.99202532 L1.89531646,12.6550633 C1.89531646,13.8675949 2.04835443,15.115443 2.7664557,15.8335443 C3.47278481,16.5398734 4.74417722,16.7046835 5.95670886,16.7046835 Z M35.0221519,12.2783544 L35.0221519,6.1921519 C35.9521519,6.25101266 37.2,7.44 37.2,9.22936709 C37.2,11.0305063 35.9521519,12.2194937 35.0221519,12.2783544 Z" id="Battery-Orang"></path>
            <path d="M5.72126582,15.1036709 C4.85012658,15.1036709 4.36746835,14.9859494 3.99075949,14.6210127 C3.61405063,14.2443038 3.50810127,13.7498734 3.50810127,12.8905063 L3.50810127,5.72126582 C3.50810127,4.85012658 3.61405063,4.36746835 3.99075949,3.99075949 C4.36746835,3.61405063 4.85012658,3.50810127 5.72126582,3.50810127 L27.6998734,3.50810127 C28.5710127,3.50810127 29.0536709,3.61405063 29.4303797,3.99075949 C29.7953165,4.36746835 29.913038,4.85012658 29.913038,5.72126582 L29.913038,12.8905063 C29.913038,13.7498734 29.8070886,14.2443038 29.4303797,14.6210127 C29.0536709,14.9859494 28.5710127,15.1036709 27.6998734,15.1036709 L5.72126582,15.1036709 Z" id="Path"></path>
        </g>
    </g>
</svg>