<?xml version="1.0" encoding="UTF-8"?>
<svg width="60px" height="60px" viewBox="0 0 60 60" version="1.1" xmlns="http://www.w3.org/2000/svg" xmlns:xlink="http://www.w3.org/1999/xlink">
    <title>calendar</title>
    <defs>
        <path d="M42.14752,0 C47.39087,0 50,2.61533 50,7.79568 L50,7.79568 L50,38.50061 C50,43.68097 47.39087,46.296296 42.14752,46.296296 L42.14752,46.296296 L7.87757,46.296296 C2.63422,46.296296 0,43.706118 0,38.50061 L0,38.50061 L0,7.79568 C0,2.59018 2.63422,0 7.87757,0 L7.87757,0 L42.14752,0 Z M42.47366,11.49235 L7.50125,11.49235 C5.26844,11.49235 4.039137,12.69942 4.039137,15.01298 L4.039137,15.01298 L4.039137,38.72694 C4.039137,41.06564 5.26844,42.24757 7.50125,42.24757 L7.50125,42.24757 L42.47366,42.24757 C44.70647,42.24757 45.96086,41.06564 45.96086,38.72694 L45.96086,38.72694 L45.96086,15.01298 C45.96086,12.69942 44.70647,11.49235 42.47366,11.49235 L42.47366,11.49235 Z" id="path-1"></path>
        <path d="M2.6593,0 C3.53738,0 3.83843,0.27663 3.83843,1.15678 L3.83843,1.15678 L3.83843,2.64048 C3.83843,3.52064 3.53738,3.77211 2.6593,3.77211 L2.6593,3.77211 L1.17912,3.77211 C0.30105,3.77211 3.55271368e-15,3.52064 3.55271368e-15,2.64048 L3.55271368e-15,2.64048 L3.55271368e-15,1.15678 C3.55271368e-15,0.27663 0.30105,0 1.17912,0 L1.17912,0 L2.6593,0 Z" id="path-3"></path>
        <path d="M2.63422,0 C3.51229,0 3.81334,0.27663 3.81334,1.15678 L3.81334,1.15678 L3.81334,2.64048 C3.81334,3.52064 3.51229,3.77211 2.63422,3.77211 L2.63422,3.77211 L1.17912,3.77211 C0.27596,3.77211 0,3.52064 0,2.64048 L0,2.64048 L0,1.15678 C0,0.27663 0.27596,0 1.17912,0 L1.17912,0 L2.63422,0 Z" id="path-5"></path>
        <path d="M2.65931,0 C3.53738,0 3.81335,0.27663 3.81335,1.15678 L3.81335,1.15678 L3.81335,2.64048 C3.81335,3.52064 3.53738,3.77211 2.65931,3.77211 L2.65931,3.77211 L1.17913,3.77211 C0.30105,3.77211 0,3.52064 0,2.64048 L0,2.64048 L0,1.15678 C0,0.27663 0.30105,0 1.17913,0 L1.17913,0 L2.65931,0 Z" id="path-7"></path>
        <path d="M2.65931,0 C3.53739,0 3.81335,0.25147 3.81335,1.13163 L3.81335,1.13163 L3.81335,2.61533 C3.81335,3.49548 3.53739,3.74696 2.65931,3.74696 L2.65931,3.74696 L1.17913,3.74696 C0.30106,3.74696 0,3.49548 0,2.61533 L0,2.61533 L0,1.13163 C0,0.25147 0.30106,0 1.17913,0 L1.17913,0 L2.65931,0 Z" id="path-9"></path>
        <path d="M2.6593,0 C3.53738,0 3.83843,0.25147 3.83843,1.13163 L3.83843,1.13163 L3.83843,2.61533 C3.83843,3.49548 3.53738,3.74696 2.6593,3.74696 L2.6593,3.74696 L1.17912,3.74696 C0.30105,3.74696 3.55271368e-15,3.49548 3.55271368e-15,2.61533 L3.55271368e-15,2.61533 L3.55271368e-15,1.13163 C3.55271368e-15,0.25147 0.30105,0 1.17912,0 L1.17912,0 L2.6593,0 Z" id="path-11"></path>
        <path d="M2.63422,0 C3.51229,0 3.81334,0.25147 3.81334,1.13163 L3.81334,1.13163 L3.81334,2.61533 C3.81334,3.49548 3.51229,3.74696 2.63422,3.74696 L2.63422,3.74696 L1.17912,3.74696 C0.27596,3.74696 0,3.49548 0,2.61533 L0,2.61533 L0,1.13163 C0,0.25147 0.27596,0 1.17912,0 L1.17912,0 L2.63422,0 Z" id="path-13"></path>
        <path d="M2.65931,0 C3.53738,0 3.81335,0.25147 3.81335,1.13163 L3.81335,1.13163 L3.81335,2.61533 C3.81335,3.49548 3.53738,3.74696 2.65931,3.74696 L2.65931,3.74696 L1.17913,3.74696 C0.30105,3.74696 0,3.49548 0,2.61533 L0,2.61533 L0,1.13163 C0,0.25147 0.30105,0 1.17913,0 L1.17913,0 L2.65931,0 Z" id="path-15"></path>
        <path d="M2.65931,0 C3.53739,0 3.81335,0.25147 3.81335,1.13163 L3.81335,1.13163 L3.81335,2.61532 C3.81335,3.49548 3.53739,3.7721 2.65931,3.7721 L2.65931,3.7721 L1.17913,3.7721 C0.30106,3.7721 0,3.49548 0,2.61532 L0,2.61532 L0,1.13163 C0,0.25147 0.30106,0 1.17913,0 L1.17913,0 L2.65931,0 Z" id="path-17"></path>
        <path d="M2.6593,0 C3.53738,0 3.83843,0.25147 3.83843,1.13163 L3.83843,1.13163 L3.83843,2.61532 C3.83843,3.49548 3.53738,3.7721 2.6593,3.7721 L2.6593,3.7721 L1.17912,3.7721 C0.30105,3.7721 3.55271368e-15,3.49548 3.55271368e-15,2.61532 L3.55271368e-15,2.61532 L3.55271368e-15,1.13163 C3.55271368e-15,0.25147 0.30105,0 1.17912,0 L1.17912,0 L2.6593,0 Z" id="path-19"></path>
        <path d="M2.63422,0 C3.51229,0 3.81334,0.25147 3.81334,1.13163 L3.81334,1.13163 L3.81334,2.61532 C3.81334,3.49548 3.51229,3.7721 2.63422,3.7721 L2.63422,3.7721 L1.17912,3.7721 C0.27596,3.7721 0,3.49548 0,2.61532 L0,2.61532 L0,1.13163 C0,0.25147 0.27596,0 1.17912,0 L1.17912,0 L2.63422,0 Z" id="path-21"></path>
    </defs>
    <g id="calendar" stroke="none" stroke-width="1" fill="none" fill-rule="evenodd">
        <g id="Group-3" transform="translate(5.000000, 6.500000)">
            <mask id="mask-2" fill="white">
                <use xlink:href="#path-1"></use>
            </mask>
            <g id="Clip-2"></g>
            <polygon id="Fill-1" fill="#E94F3D" mask="url(#mask-2)" points="-5 -5 55 -5 55 51.296296 -5 51.296296"></polygon>
        </g>
        <g id="Group-6" transform="translate(23.916210, 23.248140)">
            <mask id="mask-4" fill="white">
                <use xlink:href="#path-3"></use>
            </mask>
            <g id="Clip-5"></g>
            <polygon id="Fill-4" fill="#8E8E93" mask="url(#mask-4)" points="-5 -5 8.83843 -5 8.83843 8.77211 -5 8.77211"></polygon>
        </g>
        <g id="Group-9" transform="translate(32.270450, 23.248140)">
            <mask id="mask-6" fill="white">
                <use xlink:href="#path-5"></use>
            </mask>
            <g id="Clip-8"></g>
            <polygon id="Fill-7" fill="#8E8E93" mask="url(#mask-6)" points="-5 -5 8.81334 -5 8.81334 8.77211 -5 8.77211"></polygon>
        </g>
        <g id="Group-12" transform="translate(40.599600, 23.248140)">
            <mask id="mask-8" fill="white">
                <use xlink:href="#path-7"></use>
            </mask>
            <g id="Clip-11"></g>
            <polygon id="Fill-10" fill="#8E8E93" mask="url(#mask-8)" points="-5 -5 8.81335 -5 8.81335 8.77211 -5 8.77211"></polygon>
        </g>
        <g id="Group-15" transform="translate(15.587050, 31.496480)">
            <mask id="mask-10" fill="white">
                <use xlink:href="#path-9"></use>
            </mask>
            <g id="Clip-14"></g>
            <polygon id="Fill-13" fill="#8E8E93" mask="url(#mask-10)" points="-5 -5 8.81335 -5 8.81335 8.74696 -5 8.74696"></polygon>
        </g>
        <g id="Group-18" transform="translate(23.916210, 31.496480)">
            <mask id="mask-12" fill="white">
                <use xlink:href="#path-11"></use>
            </mask>
            <g id="Clip-17"></g>
            <polygon id="Fill-16" fill="#8E8E93" mask="url(#mask-12)" points="-5 -5 8.83843 -5 8.83843 8.74696 -5 8.74696"></polygon>
        </g>
        <g id="Group-21" transform="translate(32.270450, 31.496480)">
            <mask id="mask-14" fill="white">
                <use xlink:href="#path-13"></use>
            </mask>
            <g id="Clip-20"></g>
            <polygon id="Fill-19" fill="#8E8E93" mask="url(#mask-14)" points="-5 -5 8.81334 -5 8.81334 8.74696 -5 8.74696"></polygon>
        </g>
        <g id="Group-24" transform="translate(40.599600, 31.496480)">
            <mask id="mask-16" fill="white">
                <use xlink:href="#path-15"></use>
            </mask>
            <g id="Clip-23"></g>
            <polygon id="Fill-22" fill="#8E8E93" mask="url(#mask-16)" points="-5 -5 8.81335 -5 8.81335 8.74696 -5 8.74696"></polygon>
        </g>
        <g id="Group-27" transform="translate(15.587050, 39.719670)">
            <mask id="mask-18" fill="white">
                <use xlink:href="#path-17"></use>
            </mask>
            <g id="Clip-26"></g>
            <polygon id="Fill-25" fill="#8E8E93" mask="url(#mask-18)" points="-5 -5 8.81335 -5 8.81335 8.7721 -5 8.7721"></polygon>
        </g>
        <g id="Group-30" transform="translate(23.916210, 39.719670)">
            <mask id="mask-20" fill="white">
                <use xlink:href="#path-19"></use>
            </mask>
            <g id="Clip-29"></g>
            <polygon id="Fill-28" fill="#8E8E93" mask="url(#mask-20)" points="-5 -5 8.83843 -5 8.83843 8.7721 -5 8.7721"></polygon>
        </g>
        <g id="Group-33" transform="translate(32.270450, 39.719670)">
            <mask id="mask-22" fill="white">
                <use xlink:href="#path-21"></use>
            </mask>
            <g id="Clip-32"></g>
            <polygon id="Fill-31" fill="#8E8E93" mask="url(#mask-22)" points="-5 -5 8.81334 -5 8.81334 8.7721 -5 8.7721"></polygon>
        </g>
    </g>
</svg>