<?xml version="1.0" encoding="UTF-8"?>
<svg width="42px" height="42px" viewBox="0 0 42 42" version="1.1" xmlns="http://www.w3.org/2000/svg" xmlns:xlink="http://www.w3.org/1999/xlink">
    <title>exclamation</title>
    <g id="exclamation" stroke="none" stroke-width="1" fill="none" fill-rule="evenodd">
        <path d="M17.4623015,4.57468121 C19.526271,2.51071175 22.4028268,2.46195657 24.4667963,4.50967429 L24.4667963,4.50967429 L37.4681787,17.5273084 C39.5321481,19.5750261 39.4996447,22.4678337 37.4356752,24.5318032 L37.4356752,24.5318032 L24.5318032,37.4356752 C22.4678337,39.4996447 19.5912779,39.5321481 17.5273084,37.4681787 L17.5273084,37.4681787 L4.50967429,24.4667963 C2.46195657,22.4028268 2.51071175,19.526271 4.57468121,17.4623015 L4.57468121,17.4623015 Z M20.7705882,25.8 C19.7294118,25.8 18.7941176,26.6117647 18.7941176,27.7058824 C18.7941176,28.8 19.7470588,29.6117647 20.7705882,29.6117647 C21.7941176,29.6117647 22.7470588,28.8176471 22.7470588,27.7058824 C22.7470588,26.5941176 21.8117647,25.8 20.7705882,25.8 Z M20.7470916,11.4 C19.7412093,11.4 19.0000328,12.0882353 19.0353269,13.0588235 L19.0353269,13.0588235 L19.2823858,21.7764706 C19.3176799,22.7117647 19.8294446,23.2588235 20.7647387,23.2588235 C21.6647387,23.2588235 22.1765034,22.7294118 22.2117975,21.7764706 L22.2117975,21.7764706 L22.4765034,13.0764706 C22.5117975,12.1058824 21.7353269,11.4 20.7470916,11.4 Z" id="Exclamation-Sign" fill="#E94F3D" fill-rule="nonzero"></path>
    </g>
</svg>