<?xml version="1.0" encoding="UTF-8"?>
<svg width="42px" height="42px" viewBox="0 0 42 42" version="1.1" xmlns="http://www.w3.org/2000/svg" xmlns:xlink="http://www.w3.org/1999/xlink">
    <title>performance</title>
    <g id="performance" stroke="none" stroke-width="1" fill="none" fill-rule="evenodd">
        <path d="M23.6150774,38.6296729 L28.1802297,17.0067976 L29.2586121,22.3808512 C29.4203694,23.2131961 29.8876685,23.6112742 30.7324014,23.6112742 L37.7059411,23.6112742 C38.4248627,23.6112742 39,23.050346 39,22.3446622 C39,21.620884 38.4428357,21.0599558 37.7059411,21.0599558 L31.3434848,21.0599558 L29.2765851,11.8498776 C29.0069895,10.6013601 27.1557664,10.6013601 26.8502247,11.904161 L22.3389915,32.1880465 L17.6120819,3.36357758 C17.4143784,2.09696564 15.5811283,2.06077672 15.2935597,3.36357758 L11.4832751,21.0599558 L4.29405891,21.0599558 C3.55716425,21.0599558 3,21.6389784 3,22.3446622 C3,23.050346 3.55716425,23.6112742 4.29405891,23.6112742 L12.2561158,23.6112742 C13.0649026,23.6112742 13.5501747,23.2493851 13.7299051,22.5256068 L16.4258612,10.0585264 L21.1527708,38.6296729 C21.3684473,39.9324738 23.3634548,39.9143793 23.6150774,38.6296729 Z" fill="#3478F6" fill-rule="nonzero"></path>
    </g>
</svg>