<?xml version="1.0" encoding="UTF-8"?>
<svg width="42px" height="42px" viewBox="0 0 42 42" version="1.1" xmlns="http://www.w3.org/2000/svg" xmlns:xlink="http://www.w3.org/1999/xlink">
    <title>power</title>
    <g id="power" stroke="none" stroke-width="1" fill="none" fill-rule="evenodd">
        <g id="iCloud-Music-Copy-2" transform="translate(4.800000, 4.200000)" fill="#3478F6" fill-rule="nonzero">
            <path d="M16.2078832,17.6577049 C17.3588321,17.6577049 18.1313869,16.8393443 18.1313869,15.627541 L18.1313869,2.03016393 C18.1313869,0.802622951 17.3588321,0 16.2078832,0 C15.0411679,0 14.2686131,0.802622951 14.2686131,2.03016393 L14.2686131,15.627541 C14.2686131,16.8393443 15.0411679,17.6577049 16.2078832,17.6577049 Z M16.2078832,33.6 C25.0843796,33.6 32.4,26.2977049 32.4,17.437377 C32.4,12.8577049 30.4449635,8.68721311 27.3862774,5.83868852 C25.5889051,4.06032787 22.829781,6.3895082 24.8163504,8.40393443 C27.2128467,10.6386885 28.6948905,13.864918 28.6948905,17.437377 C28.6948905,24.3462295 23.1293431,29.9016393 16.2078832,29.9016393 C9.28642336,29.9016393 3.70510949,24.3462295 3.70510949,17.437377 C3.70510949,13.864918 5.20291971,10.6544262 7.59941606,8.40393443 C9.57021898,6.3895082 6.81109489,4.06032787 5.02948905,5.83868852 C1.97080292,8.68721311 0,12.8577049 0,17.437377 C0,26.2977049 7.33138686,33.6 16.2078832,33.6 Z" id="power"></path>
        </g>
    </g>
</svg>